<?xml version="1.0" standalone="no"?>
<!DOCTYPE svg PUBLIC "-//W3C//DTD SVG 20010904//EN"
 "http://www.w3.org/TR/2001/REC-SVG-20010904/DTD/svg10.dtd">
<svg version="1.0" xmlns="http://www.w3.org/2000/svg"
 width="700.000000pt" height="700.000000pt" viewBox="0 0 700.000000 700.000000"
 preserveAspectRatio="xMidYMid meet">
<metadata>
Created by potrace 1.14, written by Peter Selinger 2001-2017
</metadata>
<g transform="translate(0.000000,700.000000) scale(0.100000,-0.100000)"
fill="#000000" stroke="none">
<path d="M0 3500 l0 -3500 3500 0 3500 0 0 3500 0 3500 -3500 0 -3500 0 0
-3500z m3802 3167 c282 -96 584 -304 1013 -699 376 -347 958 -933 1244 -1253
333 -374 519 -651 608 -910 l38 -110 0 -195 0 -195 -38 -109 c-107 -311 -336
-627 -830 -1151 -360 -380 -859 -870 -1151 -1130 -405 -359 -719 -553 -991
-611 -85 -19 -287 -21 -370 -5 -278 56 -599 251 -1011 616 -377 335 -1086
1044 -1404 1405 -312 354 -490 625 -577 876 l-38 109 0 195 0 195 38 109 c90
261 272 532 610 912 344 387 1069 1107 1422 1414 310 269 572 443 786 521 141
52 187 59 374 56 166 -3 173 -4 277 -40z"/>
<path d="M3295 6536 c-206 -55 -430 -189 -725 -435 -465 -387 -1381 -1311
-1727 -1740 -186 -232 -325 -472 -375 -646 -32 -115 -32 -315 0 -430 100 -351
409 -743 1247 -1580 986 -987 1379 -1265 1786 -1265 317 0 644 188 1179 678
420 384 828 793 1203 1202 387 424 588 724 653 978 23 86 25 112 21 232 -3
118 -8 146 -35 227 -80 237 -265 509 -588 868 -362 402 -1023 1059 -1384 1376
-226 198 -465 371 -620 449 -45 22 -122 55 -173 72 -82 28 -107 32 -232 35
-123 3 -151 0 -230 -21z m1785 -1635 c169 -51 278 -139 348 -279 73 -145 77
-182 77 -632 -1 -374 -2 -399 -23 -473 -50 -182 -145 -306 -287 -377 l-70 -35
233 -457 233 -457 -33 -61 -33 -60 -260 0 -260 0 -252 493 -251 492 -166 3
-166 2 0 -495 0 -495 -300 0 -300 0 0 1430 0 1431 718 -3 c714 -4 717 -4 792
-27z m-2034 -47 l84 -65 0 -59 0 -59 -622 -3 -623 -3 -55 -26 c-95 -44 -141
-105 -161 -212 -6 -35 -9 -385 -7 -963 l3 -909 26 -55 c44 -93 112 -147 217
-169 35 -7 217 -11 537 -11 l485 0 0 565 0 565 -220 0 -220 0 0 125 0 125 360
0 360 0 0 -815 0 -815 -654 0 c-730 0 -754 2 -883 65 -119 59 -199 163 -240
315 -17 60 -18 137 -18 1040 0 906 1 980 18 1040 28 101 61 165 118 225 61 65
111 96 202 125 99 32 193 37 726 39 l483 1 84 -66z"/>
<path d="M4170 3994 l0 -395 333 3 c246 2 338 6 354 16 50 28 53 48 53 377 0
334 -4 360 -56 384 -17 7 -129 11 -354 11 l-330 0 0 -396z"/>
</g>
</svg>
