<svg id="Capa_1" data-name="Capa 1" xmlns="http://www.w3.org/2000/svg" viewBox="0 0 493.7 117.9"><defs><style>.cls-1{fill:#fff;}</style></defs><g id="FINALES"><g id="BLANCO"><path class="cls-1" d="M0,71.6V28C0,17.1,5,11.6,16,11.6H41.8L46,15v3.3H15.7c-5.9,0-8.8,2.9-8.8,8.7V72.3c0,5,2.9,8.7,8.8,8.7H40.9V51h-12V44.2H48.1V87.9H16C5,87.9,0,82.5,0,71.6Z" transform="translate(0 -11.2)"/><path class="cls-1" d="M76.5,45.6H98.8V31.7c0-8.1-.3-13.4-7.3-13.4H74.1c-6.9,0-8,5.3-8,13.4V67.8c0,8,1.1,13.2,8,13.2h30.1v4.3l-4.4,2.5H74.5c-12.6,0-15.3-7.2-15.3-21.5V33.2c0-14.5,2.7-21.7,15.3-21.7H91.2c12.5,0,14.4,7.2,14.4,21.7V52.4H72.4v-4Z" transform="translate(0 -11.2)"/><path class="cls-1" d="M134,45.6h22.3V31.7c0-8.1-.3-13.4-7.3-13.4H131.6c-6.9,0-8,5.3-8,13.4V67.8c0,8,1.1,13.2,8,13.2h30.1v4.3l-4.4,2.5H132c-12.6,0-15.3-7.2-15.3-21.5V33.2c0-14.5,2.7-21.7,15.3-21.7h16.7c12.5,0,14.4,7.2,14.4,21.7V52.4H129.9v-4Z" transform="translate(0 -11.2)"/><path class="cls-1" d="M215.5,87.9V64.5L208.7,55,181.4,87.9h-6.6l-.6-1.5,29.9-36.7L176.4,13.1l.8-1.5h6.7l31.7,41.8V11.7h6.8V87.9Z" transform="translate(0 -11.2)"/><path class="cls-1" d="M233.4,87.9V11.2h33.2c12.4,0,18.7,6.2,18.7,18.7V42.6c0,9.3-3.4,15.1-10.3,17.5l12.6,24.6L285.7,88H271.9L258.3,61.3h-8.8V88Zm16-41.1h16.5q3.3,0,3.3-3.3V29q0-3.3-3.3-3.3H249.4Z" transform="translate(0 -11.2)"/><path class="cls-1" d="M296.3,69.2V29.9c0-12.5,6.2-18.7,18.7-18.7h15.1c12.4,0,18.7,6.2,18.7,18.7V69.3c0,12.4-6.2,18.7-18.7,18.7H315C302.5,87.9,296.3,81.7,296.3,69.2Zm16,.9q0,3.3,3.3,3.3h13.8q3.3,0,3.3-3.3V29q0-3.3-3.3-3.3H315.6q-3.3,0-3.3,3.3Z" transform="translate(0 -11.2)"/><path class="cls-1" d="M359.7,69.2V29.9c0-12.5,6.2-18.7,18.7-18.7h15.1c12.5,0,18.7,6.2,18.7,18.7V69.3c0,12.4-6.2,18.7-18.7,18.7H378.4C366,87.9,359.7,81.7,359.7,69.2Zm16,.9q0,3.3,3.3,3.3h13.8q3.3,0,3.3-3.3V29q0-3.3-3.3-3.3H379q-3.3,0-3.3,3.3Z" transform="translate(0 -11.2)"/><path class="cls-1" d="M423.2,87.9V11.2h19.1l14.8,46.4,17.5-46.4h19.1V87.9h-16V39.4L463.9,77.9H450.3L439.2,39.4V87.9Z" transform="translate(0 -11.2)"/><path class="cls-1" d="M94.1,118.4V102.1H96v5.2h5.9v1.6H96v9.8a2.08,2.08,0,0,0,1.8,2.4h4.3v.9l-1,.8H98.5C95.6,122.8,94.1,121.3,94.1,118.4Z" transform="translate(0 -11.2)"/><path class="cls-1" d="M105.6,122.8V100.6h1.9v6.7h6.4c2.9,0,4.4,1.5,4.4,4.4v11.1h-1.9V111.4a2.16,2.16,0,0,0-1.8-2.5h-7.1v13.9Z" transform="translate(0 -11.2)"/><path class="cls-1" d="M122.2,118.4v-6.8c0-2.9,1.5-4.4,4.4-4.4h3.9c2.9,0,4.4,1.5,4.4,4.4v4.2H124.1v2.9a2.08,2.08,0,0,0,1.8,2.4h8.4v.9l-1,.8h-6.7C123.6,122.8,122.2,121.3,122.2,118.4Zm1.9-4.2H133v-2.8a2.16,2.16,0,0,0-1.8-2.5h-4.6a2.08,2.08,0,0,0-2.4,1.8v.6Z" transform="translate(0 -11.2)"/><path class="cls-1" d="M150.1,122.8V100.6H152v6.7h6.4c2.9,0,4.4,1.5,4.4,4.4v6.8c0,2.9-1.5,4.4-4.4,4.4h-8.3Zm1.9-1.7h6.5a2.16,2.16,0,0,0,2.5-1.8v-8a2.16,2.16,0,0,0-1.8-2.5H152Z" transform="translate(0 -11.2)"/><path class="cls-1" d="M166.7,118.4v-6.8c0-2.9,1.5-4.4,4.4-4.4H175c2.9,0,4.4,1.5,4.4,4.4v4.2H168.6v2.9a2.08,2.08,0,0,0,1.8,2.4h8.4v.9l-1,.8h-6.7C168.2,122.8,166.7,121.3,166.7,118.4Zm1.9-4.2h8.9v-2.8a2.16,2.16,0,0,0-1.8-2.5h-4.6a2.08,2.08,0,0,0-2.4,1.8v.6Z" transform="translate(0 -11.2)"/><path class="cls-1" d="M183.2,122v-.9h6.9a2.07,2.07,0,0,0,2.4-1.8v-.6a2.45,2.45,0,0,0-2.1-2.7h-.1l-3.2-.5c-2.7-.4-4-1.8-4-4,0-2.8,1.4-4.2,4.3-4.2h5.2l1,.8v.9h-6.2a2.07,2.07,0,0,0-2.4,1.8v.6a2.31,2.31,0,0,0,2.1,2.4h.1l3.2.5c2.7.4,4,1.9,4,4.4,0,2.8-1.4,4.2-4.3,4.2h-5.9Z" transform="translate(0 -11.2)"/><path class="cls-1" d="M197.6,118.4V102.1h1.9v5.2h5.9v1.6h-5.9v9.8a2.08,2.08,0,0,0,1.8,2.4h4.3v.9l-1,.8H202C199.1,122.8,197.6,121.3,197.6,118.4Z" transform="translate(0 -11.2)"/><path class="cls-1" d="M220.6,107.6l.2-.4h1.5l3.4,13.9h.5l4-13.9h2.6l4,13.9h.5l3.4-13.9h1.5l.3.4-3.8,15.2h-3.1l-4-13.9-4,13.9h-3.1Z" transform="translate(0 -11.2)"/><path class="cls-1" d="M249.4,122.8c-3,0-4.4-1.5-4.4-4.4s1.5-4.4,4.4-4.4h5.9v-2.5a2.16,2.16,0,0,0-1.8-2.5h-7v-1l1-.8h5.3c2.9,0,4.4,1.5,4.4,4.4v11.1Zm-2.5-4.1a2.08,2.08,0,0,0,1.8,2.4h6.6v-5.6h-6a2.08,2.08,0,0,0-2.4,1.8v1.4Z" transform="translate(0 -11.2)"/><path class="cls-1" d="M261,107.6l.2-.4h1.6l4.8,13.9h.7l4.8-13.9h1.6l.2.4-7.5,21.2h-1.6l-.2-.4,2.1-5.6h-1.3Z" transform="translate(0 -11.2)"/><path class="cls-1" d="M290.2,118.4V102.1h1.9v5.2h5.8v1.6h-5.8v9.8a2.08,2.08,0,0,0,1.8,2.4h4.3v.9l-1,.8h-2.6C291.7,122.8,290.2,121.3,290.2,118.4Z" transform="translate(0 -11.2)"/><path class="cls-1" d="M301.8,118.4v-6.8c0-2.9,1.5-4.4,4.4-4.4h4.2c2.9,0,4.4,1.5,4.4,4.4v6.8c0,2.9-1.5,4.4-4.4,4.4h-4.2C303.3,122.8,301.8,121.3,301.8,118.4Zm1.9.3a2.08,2.08,0,0,0,1.8,2.4h5a2.16,2.16,0,0,0,2.5-1.8v-8a2.16,2.16,0,0,0-1.8-2.5h-5a2.08,2.08,0,0,0-2.4,1.8v8.1Z" transform="translate(0 -11.2)"/><path class="cls-1" d="M330,118.4v-6.8c0-2.9,1.5-4.4,4.4-4.4h3.9c2.9,0,4.4,1.5,4.4,4.4v4.2H331.9v2.9a2.08,2.08,0,0,0,1.8,2.4h8.4v.9l-1,.8h-6.7C331.5,122.8,330,121.3,330,118.4Zm1.9-4.2h9v-2.8a2.16,2.16,0,0,0-1.8-2.5h-4.6a2.08,2.08,0,0,0-2.4,1.8v.6Z" transform="translate(0 -11.2)"/><path class="cls-1" d="M346.5,122.8V107.3h8.3c2.9,0,4.4,1.5,4.4,4.4v11.1h-1.9V111.4a2.16,2.16,0,0,0-1.8-2.5h-7.1v13.9Z" transform="translate(0 -11.2)"/><path class="cls-1" d="M360.4,127.3a2.48,2.48,0,0,0,2.7-2.2V107.3H365v17.2c0,3-1.5,4.6-4.6,4.6Zm2.6-23V102h2.1v2.4Z" transform="translate(0 -11.2)"/><path class="cls-1" d="M368.8,118.4v-6.8c0-2.9,1.5-4.4,4.4-4.4h4.2c2.9,0,4.4,1.5,4.4,4.4v6.8c0,2.9-1.5,4.4-4.4,4.4h-4.2C370.3,122.8,368.8,121.3,368.8,118.4Zm1.9.3a2.08,2.08,0,0,0,1.8,2.4h4.9a2.16,2.16,0,0,0,2.5-1.8v-8a2.16,2.16,0,0,0-1.8-2.5h-4.9a2.08,2.08,0,0,0-2.4,1.8v8.1Z" transform="translate(0 -11.2)"/><path class="cls-1" d="M385.6,107.6l.2-.4h1.6l4.8,13.9h.7l4.8-13.9h1.6l.2.4L392,128.8h-1.6l-.2-.4,2.1-5.6H391Z" transform="translate(0 -11.2)"/></g></g></svg>