<?xml version="1.0" encoding="utf-8"?>
<!-- Generator: Adobe Illustrator 26.0.2, SVG Export Plug-In . SVG Version: 6.00 Build 0)  -->
<svg version="1.1" id="Capa_1" xmlns="http://www.w3.org/2000/svg" xmlns:xlink="http://www.w3.org/1999/xlink" x="0px" y="0px"
	 viewBox="0 0 322.9 322.9" style="enable-background:new 0 0 322.9 322.9;" xml:space="preserve">
<style type="text/css">
	.st0{fill:#FFFFFF;}
</style>
<g id="Capa_2_00000056386168468713977160000010701461280170637441_">
	<g id="FINALES">
		<g id="SIMPLIFICADO">
			<path class="st0" d="M56.3,202.8V121c0-20.5,9.4-30.7,30-30.7h48.4l7.9,6.2v6.2H85.8c-11.1,0-16.6,5.5-16.6,16.4v85.1
				c0,9.4,5.5,16.4,16.6,16.4h47.3v-56.4h-22.4v-12.8h36.1v82.1H86.4C65.8,233.5,56.3,223.2,56.3,202.8z"/>
			<path class="st0" d="M165,233.5v-144h62.3c23.4,0,35.1,11.7,35.1,35.1v23.8c0,17.4-6.5,28.3-19.4,32.8l23.6,46.1l-3.6,6.2h-25.9
				l-25.5-50.1h-16.6v50.1L165,233.5z M195.1,156.2h31c4.2,0,6.3-2.1,6.3-6.3v-27.1c0-4.2-2.1-6.3-6.3-6.3h-31V156.2z"/>
			<path class="st0" d="M163,322.9c-0.5,0-1,0-1.6,0s-1,0-1.6,0c-26,0-54.9-27.9-85.5-57.5c-2.9-2.8-5.7-5.5-8.6-8.3
				c-2.9-3-5.6-5.9-8.4-8.7c-30.1-31.2-58.5-60.6-57.4-87c-1.1-26.4,27.3-55.9,57.4-87c2.8-2.8,5.5-5.7,8.3-8.6
				c3-2.9,5.9-5.6,8.7-8.4C105.6,27.3,135-1.1,161.5,0c26.4-1.1,55.8,27.3,87,57.4c2.9,2.8,5.7,5.5,8.6,8.3c2.9,3,5.6,5.9,8.4,8.7
				c30.1,31.2,58.6,60.6,57.4,87c1.1,26.4-27.3,55.8-57.4,87l-8.3,8.6c-3,2.9-5.9,5.6-8.7,8.4C217.9,295,189,322.9,163,322.9z
				 M161.4,315.4h0.2c23.2,1.2,51.6-26.3,81.6-55.3l8.6-8.3l8.2-8.5c29-30,56.5-58.4,55.3-81.6v-0.4c1.1-23.2-26.3-51.6-55.3-81.6
				c-2.8-2.9-5.5-5.7-8.3-8.6c-2.8-2.7-5.6-5.4-8.5-8.2C213.8,34.4,186,7.5,163,7.5c-0.5,0-0.9,0-1.4,0h-0.4c-0.5,0-0.9,0-1.4,0
				c-22.9,0-50.8,26.9-80.2,55.3c-2.8,2.8-5.7,5.5-8.6,8.3c-2.7,2.8-5.4,5.6-8.2,8.5c-29,30-56.5,58.4-55.3,81.6v0.4
				c-1.1,23.2,26.3,51.6,55.3,81.6c2.8,2.9,5.5,5.7,8.3,8.6c2.8,2.7,5.7,5.4,8.5,8.2c30,29,58.4,56.5,81.6,55.3L161.4,315.4z"/>
		</g>
	</g>
</g>
</svg>
